# .PCD v0.7 - Point Cloud Data file format
VERSION 0.7
FIELDS x y z
SIZE 4 4 4
TYPE F F F
COUNT 1 1 1
WIDTH 961
HEIGHT 1
VIEWPOINT 0 0 0 1 0 0 0
POINTS 961
DATA ascii
-19.7500 0.0000 0.0000
-19.7551 0.0503 0.0000
-19.7703 0.0986 0.0000
-19.7948 0.1428 0.0000
-19.8278 0.1812 0.0000
-19.8678 0.2122 0.0000
-19.9132 0.2344 0.0000
-19.9621 0.2471 0.0000
-20.0127 0.2497 0.0000
-20.0627 0.2420 0.0000
-20.1101 0.2245 0.0000
-20.1530 0.1977 0.0000
-20.1897 0.1628 0.0000
-20.2186 0.1213 0.0000
-20.2385 0.0748 0.0000
-20.2487 0.0253 0.0000
-20.2487 -0.0253 0.0000
-20.2385 -0.0748 0.0000
-20.2186 -0.1213 0.0000
-20.1897 -0.1628 0.0000
-20.1530 -0.1977 0.0000
-20.1101 -0.2245 0.0000
-20.0627 -0.2420 0.0000
-20.0127 -0.2497 0.0000
-19.9621 -0.2471 0.0000
-19.9132 -0.2344 0.0000
-19.8678 -0.2122 0.0000
-19.8278 -0.1812 0.0000
-19.7948 -0.1428 0.0000
-19.7703 -0.0986 0.0000
-19.7551 -0.0503 0.0000
-19.7500 0.0000 0.1000
-19.7551 0.0503 0.1000
-19.7703 0.0986 0.1000
-19.7948 0.1428 0.1000
-19.8278 0.1812 0.1000
-19.8678 0.2122 0.1000
-19.9132 0.2344 0.1000
-19.9621 0.2471 0.1000
-20.0127 0.2497 0.1000
-20.0627 0.2420 0.1000
-20.1101 0.2245 0.1000
-20.1530 0.1977 0.1000
-20.1897 0.1628 0.1000
-20.2186 0.1213 0.1000
-20.2385 0.0748 0.1000
-20.2487 0.0253 0.1000
-20.2487 -0.0253 0.1000
-20.2385 -0.0748 0.1000
-20.2186 -0.1213 0.1000
-20.1897 -0.1628 0.1000
-20.1530 -0.1977 0.1000
-20.1101 -0.2245 0.1000
-20.0627 -0.2420 0.1000
-20.0127 -0.2497 0.1000
-19.9621 -0.2471 0.1000
-19.9132 -0.2344 0.1000
-19.8678 -0.2122 0.1000
-19.8278 -0.1812 0.1000
-19.7948 -0.1428 0.1000
-19.7703 -0.0986 0.1000
-19.7551 -0.0503 0.1000
-19.7500 0.0000 0.2000
-19.7551 0.0503 0.2000
-19.7703 0.0986 0.2000
-19.7948 0.1428 0.2000
-19.8278 0.1812 0.2000
-19.8678 0.2122 0.2000
-19.9132 0.2344 0.2000
-19.9621 0.2471 0.2000
-20.0127 0.2497 0.2000
-20.0627 0.2420 0.2000
-20.1101 0.2245 0.2000
-20.1530 0.1977 0.2000
-20.1897 0.1628 0.2000
-20.2186 0.1213 0.2000
-20.2385 0.0748 0.2000
-20.2487 0.0253 0.2000
-20.2487 -0.0253 0.2000
-20.2385 -0.0748 0.2000
-20.2186 -0.1213 0.2000
-20.1897 -0.1628 0.2000
-20.1530 -0.1977 0.2000
-20.1101 -0.2245 0.2000
-20.0627 -0.2420 0.2000
-20.0127 -0.2497 0.2000
-19.9621 -0.2471 0.2000
-19.9132 -0.2344 0.2000
-19.8678 -0.2122 0.2000
-19.8278 -0.1812 0.2000
-19.7948 -0.1428 0.2000
-19.7703 -0.0986 0.2000
-19.7551 -0.0503 0.2000
-19.7500 0.0000 0.3000
-19.7551 0.0503 0.3000
-19.7703 0.0986 0.3000
-19.7948 0.1428 0.3000
-19.8278 0.1812 0.3000
-19.8678 0.2122 0.3000
-19.9132 0.2344 0.3000
-19.9621 0.2471 0.3000
-20.0127 0.2497 0.3000
-20.0627 0.2420 0.3000
-20.1101 0.2245 0.3000
-20.1530 0.1977 0.3000
-20.1897 0.1628 0.3000
-20.2186 0.1213 0.3000
-20.2385 0.0748 0.3000
-20.2487 0.0253 0.3000
-20.2487 -0.0253 0.3000
-20.2385 -0.0748 0.3000
-20.2186 -0.1213 0.3000
-20.1897 -0.1628 0.3000
-20.1530 -0.1977 0.3000
-20.1101 -0.2245 0.3000
-20.0627 -0.2420 0.3000
-20.0127 -0.2497 0.3000
-19.9621 -0.2471 0.3000
-19.9132 -0.2344 0.3000
-19.8678 -0.2122 0.3000
-19.8278 -0.1812 0.3000
-19.7948 -0.1428 0.3000
-19.7703 -0.0986 0.3000
-19.7551 -0.0503 0.3000
-19.7500 0.0000 0.4000
-19.7551 0.0503 0.4000
-19.7703 0.0986 0.4000
-19.7948 0.1428 0.4000
-19.8278 0.1812 0.4000
-19.8678 0.2122 0.4000
-19.9132 0.2344 0.4000
-19.9621 0.2471 0.4000
-20.0127 0.2497 0.4000
-20.0627 0.2420 0.4000
-20.1101 0.2245 0.4000
-20.1530 0.1977 0.4000
-20.1897 0.1628 0.4000
-20.2186 0.1213 0.4000
-20.2385 0.0748 0.4000
-20.2487 0.0253 0.4000
-20.2487 -0.0253 0.4000
-20.2385 -0.0748 0.4000
-20.2186 -0.1213 0.4000
-20.1897 -0.1628 0.4000
-20.1530 -0.1977 0.4000
-20.1101 -0.2245 0.4000
-20.0627 -0.2420 0.4000
-20.0127 -0.2497 0.4000
-19.9621 -0.2471 0.4000
-19.9132 -0.2344 0.4000
-19.8678 -0.2122 0.4000
-19.8278 -0.1812 0.4000
-19.7948 -0.1428 0.4000
-19.7703 -0.0986 0.4000
-19.7551 -0.0503 0.4000
-19.7500 0.0000 0.5000
-19.7551 0.0503 0.5000
-19.7703 0.0986 0.5000
-19.7948 0.1428 0.5000
-19.8278 0.1812 0.5000
-19.8678 0.2122 0.5000
-19.9132 0.2344 0.5000
-19.9621 0.2471 0.5000
-20.0127 0.2497 0.5000
-20.0627 0.2420 0.5000
-20.1101 0.2245 0.5000
-20.1530 0.1977 0.5000
-20.1897 0.1628 0.5000
-20.2186 0.1213 0.5000
-20.2385 0.0748 0.5000
-20.2487 0.0253 0.5000
-20.2487 -0.0253 0.5000
-20.2385 -0.0748 0.5000
-20.2186 -0.1213 0.5000
-20.1897 -0.1628 0.5000
-20.1530 -0.1977 0.5000
-20.1101 -0.2245 0.5000
-20.0627 -0.2420 0.5000
-20.0127 -0.2497 0.5000
-19.9621 -0.2471 0.5000
-19.9132 -0.2344 0.5000
-19.8678 -0.2122 0.5000
-19.8278 -0.1812 0.5000
-19.7948 -0.1428 0.5000
-19.7703 -0.0986 0.5000
-19.7551 -0.0503 0.5000
-19.7500 0.0000 0.6000
-19.7551 0.0503 0.6000
-19.7703 0.0986 0.6000
-19.7948 0.1428 0.6000
-19.8278 0.1812 0.6000
-19.8678 0.2122 0.6000
-19.9132 0.2344 0.6000
-19.9621 0.2471 0.6000
-20.0127 0.2497 0.6000
-20.0627 0.2420 0.6000
-20.1101 0.2245 0.6000
-20.1530 0.1977 0.6000
-20.1897 0.1628 0.6000
-20.2186 0.1213 0.6000
-20.2385 0.0748 0.6000
-20.2487 0.0253 0.6000
-20.2487 -0.0253 0.6000
-20.2385 -0.0748 0.6000
-20.2186 -0.1213 0.6000
-20.1897 -0.1628 0.6000
-20.1530 -0.1977 0.6000
-20.1101 -0.2245 0.6000
-20.0627 -0.2420 0.6000
-20.0127 -0.2497 0.6000
-19.9621 -0.2471 0.6000
-19.9132 -0.2344 0.6000
-19.8678 -0.2122 0.6000
-19.8278 -0.1812 0.6000
-19.7948 -0.1428 0.6000
-19.7703 -0.0986 0.6000
-19.7551 -0.0503 0.6000
-19.7500 0.0000 0.7000
-19.7551 0.0503 0.7000
-19.7703 0.0986 0.7000
-19.7948 0.1428 0.7000
-19.8278 0.1812 0.7000
-19.8678 0.2122 0.7000
-19.9132 0.2344 0.7000
-19.9621 0.2471 0.7000
-20.0127 0.2497 0.7000
-20.0627 0.2420 0.7000
-20.1101 0.2245 0.7000
-20.1530 0.1977 0.7000
-20.1897 0.1628 0.7000
-20.2186 0.1213 0.7000
-20.2385 0.0748 0.7000
-20.2487 0.0253 0.7000
-20.2487 -0.0253 0.7000
-20.2385 -0.0748 0.7000
-20.2186 -0.1213 0.7000
-20.1897 -0.1628 0.7000
-20.1530 -0.1977 0.7000
-20.1101 -0.2245 0.7000
-20.0627 -0.2420 0.7000
-20.0127 -0.2497 0.7000
-19.9621 -0.2471 0.7000
-19.9132 -0.2344 0.7000
-19.8678 -0.2122 0.7000
-19.8278 -0.1812 0.7000
-19.7948 -0.1428 0.7000
-19.7703 -0.0986 0.7000
-19.7551 -0.0503 0.7000
-19.7500 0.0000 0.8000
-19.7551 0.0503 0.8000
-19.7703 0.0986 0.8000
-19.7948 0.1428 0.8000
-19.8278 0.1812 0.8000
-19.8678 0.2122 0.8000
-19.9132 0.2344 0.8000
-19.9621 0.2471 0.8000
-20.0127 0.2497 0.8000
-20.0627 0.2420 0.8000
-20.1101 0.2245 0.8000
-20.1530 0.1977 0.8000
-20.1897 0.1628 0.8000
-20.2186 0.1213 0.8000
-20.2385 0.0748 0.8000
-20.2487 0.0253 0.8000
-20.2487 -0.0253 0.8000
-20.2385 -0.0748 0.8000
-20.2186 -0.1213 0.8000
-20.1897 -0.1628 0.8000
-20.1530 -0.1977 0.8000
-20.1101 -0.2245 0.8000
-20.0627 -0.2420 0.8000
-20.0127 -0.2497 0.8000
-19.9621 -0.2471 0.8000
-19.9132 -0.2344 0.8000
-19.8678 -0.2122 0.8000
-19.8278 -0.1812 0.8000
-19.7948 -0.1428 0.8000
-19.7703 -0.0986 0.8000
-19.7551 -0.0503 0.8000
-19.7500 0.0000 0.9000
-19.7551 0.0503 0.9000
-19.7703 0.0986 0.9000
-19.7948 0.1428 0.9000
-19.8278 0.1812 0.9000
-19.8678 0.2122 0.9000
-19.9132 0.2344 0.9000
-19.9621 0.2471 0.9000
-20.0127 0.2497 0.9000
-20.0627 0.2420 0.9000
-20.1101 0.2245 0.9000
-20.1530 0.1977 0.9000
-20.1897 0.1628 0.9000
-20.2186 0.1213 0.9000
-20.2385 0.0748 0.9000
-20.2487 0.0253 0.9000
-20.2487 -0.0253 0.9000
-20.2385 -0.0748 0.9000
-20.2186 -0.1213 0.9000
-20.1897 -0.1628 0.9000
-20.1530 -0.1977 0.9000
-20.1101 -0.2245 0.9000
-20.0627 -0.2420 0.9000
-20.0127 -0.2497 0.9000
-19.9621 -0.2471 0.9000
-19.9132 -0.2344 0.9000
-19.8678 -0.2122 0.9000
-19.8278 -0.1812 0.9000
-19.7948 -0.1428 0.9000
-19.7703 -0.0986 0.9000
-19.7551 -0.0503 0.9000
-19.7500 0.0000 1.0000
-19.7551 0.0503 1.0000
-19.7703 0.0986 1.0000
-19.7948 0.1428 1.0000
-19.8278 0.1812 1.0000
-19.8678 0.2122 1.0000
-19.9132 0.2344 1.0000
-19.9621 0.2471 1.0000
-20.0127 0.2497 1.0000
-20.0627 0.2420 1.0000
-20.1101 0.2245 1.0000
-20.1530 0.1977 1.0000
-20.1897 0.1628 1.0000
-20.2186 0.1213 1.0000
-20.2385 0.0748 1.0000
-20.2487 0.0253 1.0000
-20.2487 -0.0253 1.0000
-20.2385 -0.0748 1.0000
-20.2186 -0.1213 1.0000
-20.1897 -0.1628 1.0000
-20.1530 -0.1977 1.0000
-20.1101 -0.2245 1.0000
-20.0627 -0.2420 1.0000
-20.0127 -0.2497 1.0000
-19.9621 -0.2471 1.0000
-19.9132 -0.2344 1.0000
-19.8678 -0.2122 1.0000
-19.8278 -0.1812 1.0000
-19.7948 -0.1428 1.0000
-19.7703 -0.0986 1.0000
-19.7551 -0.0503 1.0000
-19.7500 0.0000 1.1000
-19.7551 0.0503 1.1000
-19.7703 0.0986 1.1000
-19.7948 0.1428 1.1000
-19.8278 0.1812 1.1000
-19.8678 0.2122 1.1000
-19.9132 0.2344 1.1000
-19.9621 0.2471 1.1000
-20.0127 0.2497 1.1000
-20.0627 0.2420 1.1000
-20.1101 0.2245 1.1000
-20.1530 0.1977 1.1000
-20.1897 0.1628 1.1000
-20.2186 0.1213 1.1000
-20.2385 0.0748 1.1000
-20.2487 0.0253 1.1000
-20.2487 -0.0253 1.1000
-20.2385 -0.0748 1.1000
-20.2186 -0.1213 1.1000
-20.1897 -0.1628 1.1000
-20.1530 -0.1977 1.1000
-20.1101 -0.2245 1.1000
-20.0627 -0.2420 1.1000
-20.0127 -0.2497 1.1000
-19.9621 -0.2471 1.1000
-19.9132 -0.2344 1.1000
-19.8678 -0.2122 1.1000
-19.8278 -0.1812 1.1000
-19.7948 -0.1428 1.1000
-19.7703 -0.0986 1.1000
-19.7551 -0.0503 1.1000
-19.7500 0.0000 1.2000
-19.7551 0.0503 1.2000
-19.7703 0.0986 1.2000
-19.7948 0.1428 1.2000
-19.8278 0.1812 1.2000
-19.8678 0.2122 1.2000
-19.9132 0.2344 1.2000
-19.9621 0.2471 1.2000
-20.0127 0.2497 1.2000
-20.0627 0.2420 1.2000
-20.1101 0.2245 1.2000
-20.1530 0.1977 1.2000
-20.1897 0.1628 1.2000
-20.2186 0.1213 1.2000
-20.2385 0.0748 1.2000
-20.2487 0.0253 1.2000
-20.2487 -0.0253 1.2000
-20.2385 -0.0748 1.2000
-20.2186 -0.1213 1.2000
-20.1897 -0.1628 1.2000
-20.1530 -0.1977 1.2000
-20.1101 -0.2245 1.2000
-20.0627 -0.2420 1.2000
-20.0127 -0.2497 1.2000
-19.9621 -0.2471 1.2000
-19.9132 -0.2344 1.2000
-19.8678 -0.2122 1.2000
-19.8278 -0.1812 1.2000
-19.7948 -0.1428 1.2000
-19.7703 -0.0986 1.2000
-19.7551 -0.0503 1.2000
-19.7500 0.0000 1.3000
-19.7551 0.0503 1.3000
-19.7703 0.0986 1.3000
-19.7948 0.1428 1.3000
-19.8278 0.1812 1.3000
-19.8678 0.2122 1.3000
-19.9132 0.2344 1.3000
-19.9621 0.2471 1.3000
-20.0127 0.2497 1.3000
-20.0627 0.2420 1.3000
-20.1101 0.2245 1.3000
-20.1530 0.1977 1.3000
-20.1897 0.1628 1.3000
-20.2186 0.1213 1.3000
-20.2385 0.0748 1.3000
-20.2487 0.0253 1.3000
-20.2487 -0.0253 1.3000
-20.2385 -0.0748 1.3000
-20.2186 -0.1213 1.3000
-20.1897 -0.1628 1.3000
-20.1530 -0.1977 1.3000
-20.1101 -0.2245 1.3000
-20.0627 -0.2420 1.3000
-20.0127 -0.2497 1.3000
-19.9621 -0.2471 1.3000
-19.9132 -0.2344 1.3000
-19.8678 -0.2122 1.3000
-19.8278 -0.1812 1.3000
-19.7948 -0.1428 1.3000
-19.7703 -0.0986 1.3000
-19.7551 -0.0503 1.3000
-19.7500 0.0000 1.4000
-19.7551 0.0503 1.4000
-19.7703 0.0986 1.4000
-19.7948 0.1428 1.4000
-19.8278 0.1812 1.4000
-19.8678 0.2122 1.4000
-19.9132 0.2344 1.4000
-19.9621 0.2471 1.4000
-20.0127 0.2497 1.4000
-20.0627 0.2420 1.4000
-20.1101 0.2245 1.4000
-20.1530 0.1977 1.4000
-20.1897 0.1628 1.4000
-20.2186 0.1213 1.4000
-20.2385 0.0748 1.4000
-20.2487 0.0253 1.4000
-20.2487 -0.0253 1.4000
-20.2385 -0.0748 1.4000
-20.2186 -0.1213 1.4000
-20.1897 -0.1628 1.4000
-20.1530 -0.1977 1.4000
-20.1101 -0.2245 1.4000
-20.0627 -0.2420 1.4000
-20.0127 -0.2497 1.4000
-19.9621 -0.2471 1.4000
-19.9132 -0.2344 1.4000
-19.8678 -0.2122 1.4000
-19.8278 -0.1812 1.4000
-19.7948 -0.1428 1.4000
-19.7703 -0.0986 1.4000
-19.7551 -0.0503 1.4000
-19.7500 0.0000 1.5000
-19.7551 0.0503 1.5000
-19.7703 0.0986 1.5000
-19.7948 0.1428 1.5000
-19.8278 0.1812 1.5000
-19.8678 0.2122 1.5000
-19.9132 0.2344 1.5000
-19.9621 0.2471 1.5000
-20.0127 0.2497 1.5000
-20.0627 0.2420 1.5000
-20.1101 0.2245 1.5000
-20.1530 0.1977 1.5000
-20.1897 0.1628 1.5000
-20.2186 0.1213 1.5000
-20.2385 0.0748 1.5000
-20.2487 0.0253 1.5000
-20.2487 -0.0253 1.5000
-20.2385 -0.0748 1.5000
-20.2186 -0.1213 1.5000
-20.1897 -0.1628 1.5000
-20.1530 -0.1977 1.5000
-20.1101 -0.2245 1.5000
-20.0627 -0.2420 1.5000
-20.0127 -0.2497 1.5000
-19.9621 -0.2471 1.5000
-19.9132 -0.2344 1.5000
-19.8678 -0.2122 1.5000
-19.8278 -0.1812 1.5000
-19.7948 -0.1428 1.5000
-19.7703 -0.0986 1.5000
-19.7551 -0.0503 1.5000
-19.7500 0.0000 1.6000
-19.7551 0.0503 1.6000
-19.7703 0.0986 1.6000
-19.7948 0.1428 1.6000
-19.8278 0.1812 1.6000
-19.8678 0.2122 1.6000
-19.9132 0.2344 1.6000
-19.9621 0.2471 1.6000
-20.0127 0.2497 1.6000
-20.0627 0.2420 1.6000
-20.1101 0.2245 1.6000
-20.1530 0.1977 1.6000
-20.1897 0.1628 1.6000
-20.2186 0.1213 1.6000
-20.2385 0.0748 1.6000
-20.2487 0.0253 1.6000
-20.2487 -0.0253 1.6000
-20.2385 -0.0748 1.6000
-20.2186 -0.1213 1.6000
-20.1897 -0.1628 1.6000
-20.1530 -0.1977 1.6000
-20.1101 -0.2245 1.6000
-20.0627 -0.2420 1.6000
-20.0127 -0.2497 1.6000
-19.9621 -0.2471 1.6000
-19.9132 -0.2344 1.6000
-19.8678 -0.2122 1.6000
-19.8278 -0.1812 1.6000
-19.7948 -0.1428 1.6000
-19.7703 -0.0986 1.6000
-19.7551 -0.0503 1.6000
-19.7500 0.0000 1.7000
-19.7551 0.0503 1.7000
-19.7703 0.0986 1.7000
-19.7948 0.1428 1.7000
-19.8278 0.1812 1.7000
-19.8678 0.2122 1.7000
-19.9132 0.2344 1.7000
-19.9621 0.2471 1.7000
-20.0127 0.2497 1.7000
-20.0627 0.2420 1.7000
-20.1101 0.2245 1.7000
-20.1530 0.1977 1.7000
-20.1897 0.1628 1.7000
-20.2186 0.1213 1.7000
-20.2385 0.0748 1.7000
-20.2487 0.0253 1.7000
-20.2487 -0.0253 1.7000
-20.2385 -0.0748 1.7000
-20.2186 -0.1213 1.7000
-20.1897 -0.1628 1.7000
-20.1530 -0.1977 1.7000
-20.1101 -0.2245 1.7000
-20.0627 -0.2420 1.7000
-20.0127 -0.2497 1.7000
-19.9621 -0.2471 1.7000
-19.9132 -0.2344 1.7000
-19.8678 -0.2122 1.7000
-19.8278 -0.1812 1.7000
-19.7948 -0.1428 1.7000
-19.7703 -0.0986 1.7000
-19.7551 -0.0503 1.7000
-19.7500 0.0000 1.8000
-19.7551 0.0503 1.8000
-19.7703 0.0986 1.8000
-19.7948 0.1428 1.8000
-19.8278 0.1812 1.8000
-19.8678 0.2122 1.8000
-19.9132 0.2344 1.8000
-19.9621 0.2471 1.8000
-20.0127 0.2497 1.8000
-20.0627 0.2420 1.8000
-20.1101 0.2245 1.8000
-20.1530 0.1977 1.8000
-20.1897 0.1628 1.8000
-20.2186 0.1213 1.8000
-20.2385 0.0748 1.8000
-20.2487 0.0253 1.8000
-20.2487 -0.0253 1.8000
-20.2385 -0.0748 1.8000
-20.2186 -0.1213 1.8000
-20.1897 -0.1628 1.8000
-20.1530 -0.1977 1.8000
-20.1101 -0.2245 1.8000
-20.0627 -0.2420 1.8000
-20.0127 -0.2497 1.8000
-19.9621 -0.2471 1.8000
-19.9132 -0.2344 1.8000
-19.8678 -0.2122 1.8000
-19.8278 -0.1812 1.8000
-19.7948 -0.1428 1.8000
-19.7703 -0.0986 1.8000
-19.7551 -0.0503 1.8000
-19.7500 0.0000 1.9000
-19.7551 0.0503 1.9000
-19.7703 0.0986 1.9000
-19.7948 0.1428 1.9000
-19.8278 0.1812 1.9000
-19.8678 0.2122 1.9000
-19.9132 0.2344 1.9000
-19.9621 0.2471 1.9000
-20.0127 0.2497 1.9000
-20.0627 0.2420 1.9000
-20.1101 0.2245 1.9000
-20.1530 0.1977 1.9000
-20.1897 0.1628 1.9000
-20.2186 0.1213 1.9000
-20.2385 0.0748 1.9000
-20.2487 0.0253 1.9000
-20.2487 -0.0253 1.9000
-20.2385 -0.0748 1.9000
-20.2186 -0.1213 1.9000
-20.1897 -0.1628 1.9000
-20.1530 -0.1977 1.9000
-20.1101 -0.2245 1.9000
-20.0627 -0.2420 1.9000
-20.0127 -0.2497 1.9000
-19.9621 -0.2471 1.9000
-19.9132 -0.2344 1.9000
-19.8678 -0.2122 1.9000
-19.8278 -0.1812 1.9000
-19.7948 -0.1428 1.9000
-19.7703 -0.0986 1.9000
-19.7551 -0.0503 1.9000
-19.7500 0.0000 2.0000
-19.7551 0.0503 2.0000
-19.7703 0.0986 2.0000
-19.7948 0.1428 2.0000
-19.8278 0.1812 2.0000
-19.8678 0.2122 2.0000
-19.9132 0.2344 2.0000
-19.9621 0.2471 2.0000
-20.0127 0.2497 2.0000
-20.0627 0.2420 2.0000
-20.1101 0.2245 2.0000
-20.1530 0.1977 2.0000
-20.1897 0.1628 2.0000
-20.2186 0.1213 2.0000
-20.2385 0.0748 2.0000
-20.2487 0.0253 2.0000
-20.2487 -0.0253 2.0000
-20.2385 -0.0748 2.0000
-20.2186 -0.1213 2.0000
-20.1897 -0.1628 2.0000
-20.1530 -0.1977 2.0000
-20.1101 -0.2245 2.0000
-20.0627 -0.2420 2.0000
-20.0127 -0.2497 2.0000
-19.9621 -0.2471 2.0000
-19.9132 -0.2344 2.0000
-19.8678 -0.2122 2.0000
-19.8278 -0.1812 2.0000
-19.7948 -0.1428 2.0000
-19.7703 -0.0986 2.0000
-19.7551 -0.0503 2.0000
-19.7500 0.0000 2.1000
-19.7551 0.0503 2.1000
-19.7703 0.0986 2.1000
-19.7948 0.1428 2.1000
-19.8278 0.1812 2.1000
-19.8678 0.2122 2.1000
-19.9132 0.2344 2.1000
-19.9621 0.2471 2.1000
-20.0127 0.2497 2.1000
-20.0627 0.2420 2.1000
-20.1101 0.2245 2.1000
-20.1530 0.1977 2.1000
-20.1897 0.1628 2.1000
-20.2186 0.1213 2.1000
-20.2385 0.0748 2.1000
-20.2487 0.0253 2.1000
-20.2487 -0.0253 2.1000
-20.2385 -0.0748 2.1000
-20.2186 -0.1213 2.1000
-20.1897 -0.1628 2.1000
-20.1530 -0.1977 2.1000
-20.1101 -0.2245 2.1000
-20.0627 -0.2420 2.1000
-20.0127 -0.2497 2.1000
-19.9621 -0.2471 2.1000
-19.9132 -0.2344 2.1000
-19.8678 -0.2122 2.1000
-19.8278 -0.1812 2.1000
-19.7948 -0.1428 2.1000
-19.7703 -0.0986 2.1000
-19.7551 -0.0503 2.1000
-19.7500 0.0000 2.2000
-19.7551 0.0503 2.2000
-19.7703 0.0986 2.2000
-19.7948 0.1428 2.2000
-19.8278 0.1812 2.2000
-19.8678 0.2122 2.2000
-19.9132 0.2344 2.2000
-19.9621 0.2471 2.2000
-20.0127 0.2497 2.2000
-20.0627 0.2420 2.2000
-20.1101 0.2245 2.2000
-20.1530 0.1977 2.2000
-20.1897 0.1628 2.2000
-20.2186 0.1213 2.2000
-20.2385 0.0748 2.2000
-20.2487 0.0253 2.2000
-20.2487 -0.0253 2.2000
-20.2385 -0.0748 2.2000
-20.2186 -0.1213 2.2000
-20.1897 -0.1628 2.2000
-20.1530 -0.1977 2.2000
-20.1101 -0.2245 2.2000
-20.0627 -0.2420 2.2000
-20.0127 -0.2497 2.2000
-19.9621 -0.2471 2.2000
-19.9132 -0.2344 2.2000
-19.8678 -0.2122 2.2000
-19.8278 -0.1812 2.2000
-19.7948 -0.1428 2.2000
-19.7703 -0.0986 2.2000
-19.7551 -0.0503 2.2000
-19.7500 0.0000 2.3000
-19.7551 0.0503 2.3000
-19.7703 0.0986 2.3000
-19.7948 0.1428 2.3000
-19.8278 0.1812 2.3000
-19.8678 0.2122 2.3000
-19.9132 0.2344 2.3000
-19.9621 0.2471 2.3000
-20.0127 0.2497 2.3000
-20.0627 0.2420 2.3000
-20.1101 0.2245 2.3000
-20.1530 0.1977 2.3000
-20.1897 0.1628 2.3000
-20.2186 0.1213 2.3000
-20.2385 0.0748 2.3000
-20.2487 0.0253 2.3000
-20.2487 -0.0253 2.3000
-20.2385 -0.0748 2.3000
-20.2186 -0.1213 2.3000
-20.1897 -0.1628 2.3000
-20.1530 -0.1977 2.3000
-20.1101 -0.2245 2.3000
-20.0627 -0.2420 2.3000
-20.0127 -0.2497 2.3000
-19.9621 -0.2471 2.3000
-19.9132 -0.2344 2.3000
-19.8678 -0.2122 2.3000
-19.8278 -0.1812 2.3000
-19.7948 -0.1428 2.3000
-19.7703 -0.0986 2.3000
-19.7551 -0.0503 2.3000
-19.7500 0.0000 2.4000
-19.7551 0.0503 2.4000
-19.7703 0.0986 2.4000
-19.7948 0.1428 2.4000
-19.8278 0.1812 2.4000
-19.8678 0.2122 2.4000
-19.9132 0.2344 2.4000
-19.9621 0.2471 2.4000
-20.0127 0.2497 2.4000
-20.0627 0.2420 2.4000
-20.1101 0.2245 2.4000
-20.1530 0.1977 2.4000
-20.1897 0.1628 2.4000
-20.2186 0.1213 2.4000
-20.2385 0.0748 2.4000
-20.2487 0.0253 2.4000
-20.2487 -0.0253 2.4000
-20.2385 -0.0748 2.4000
-20.2186 -0.1213 2.4000
-20.1897 -0.1628 2.4000
-20.1530 -0.1977 2.4000
-20.1101 -0.2245 2.4000
-20.0627 -0.2420 2.4000
-20.0127 -0.2497 2.4000
-19.9621 -0.2471 2.4000
-19.9132 -0.2344 2.4000
-19.8678 -0.2122 2.4000
-19.8278 -0.1812 2.4000
-19.7948 -0.1428 2.4000
-19.7703 -0.0986 2.4000
-19.7551 -0.0503 2.4000
-19.7500 0.0000 2.5000
-19.7551 0.0503 2.5000
-19.7703 0.0986 2.5000
-19.7948 0.1428 2.5000
-19.8278 0.1812 2.5000
-19.8678 0.2122 2.5000
-19.9132 0.2344 2.5000
-19.9621 0.2471 2.5000
-20.0127 0.2497 2.5000
-20.0627 0.2420 2.5000
-20.1101 0.2245 2.5000
-20.1530 0.1977 2.5000
-20.1897 0.1628 2.5000
-20.2186 0.1213 2.5000
-20.2385 0.0748 2.5000
-20.2487 0.0253 2.5000
-20.2487 -0.0253 2.5000
-20.2385 -0.0748 2.5000
-20.2186 -0.1213 2.5000
-20.1897 -0.1628 2.5000
-20.1530 -0.1977 2.5000
-20.1101 -0.2245 2.5000
-20.0627 -0.2420 2.5000
-20.0127 -0.2497 2.5000
-19.9621 -0.2471 2.5000
-19.9132 -0.2344 2.5000
-19.8678 -0.2122 2.5000
-19.8278 -0.1812 2.5000
-19.7948 -0.1428 2.5000
-19.7703 -0.0986 2.5000
-19.7551 -0.0503 2.5000
-19.7500 0.0000 2.6000
-19.7551 0.0503 2.6000
-19.7703 0.0986 2.6000
-19.7948 0.1428 2.6000
-19.8278 0.1812 2.6000
-19.8678 0.2122 2.6000
-19.9132 0.2344 2.6000
-19.9621 0.2471 2.6000
-20.0127 0.2497 2.6000
-20.0627 0.2420 2.6000
-20.1101 0.2245 2.6000
-20.1530 0.1977 2.6000
-20.1897 0.1628 2.6000
-20.2186 0.1213 2.6000
-20.2385 0.0748 2.6000
-20.2487 0.0253 2.6000
-20.2487 -0.0253 2.6000
-20.2385 -0.0748 2.6000
-20.2186 -0.1213 2.6000
-20.1897 -0.1628 2.6000
-20.1530 -0.1977 2.6000
-20.1101 -0.2245 2.6000
-20.0627 -0.2420 2.6000
-20.0127 -0.2497 2.6000
-19.9621 -0.2471 2.6000
-19.9132 -0.2344 2.6000
-19.8678 -0.2122 2.6000
-19.8278 -0.1812 2.6000
-19.7948 -0.1428 2.6000
-19.7703 -0.0986 2.6000
-19.7551 -0.0503 2.6000
-19.7500 0.0000 2.7000
-19.7551 0.0503 2.7000
-19.7703 0.0986 2.7000
-19.7948 0.1428 2.7000
-19.8278 0.1812 2.7000
-19.8678 0.2122 2.7000
-19.9132 0.2344 2.7000
-19.9621 0.2471 2.7000
-20.0127 0.2497 2.7000
-20.0627 0.2420 2.7000
-20.1101 0.2245 2.7000
-20.1530 0.1977 2.7000
-20.1897 0.1628 2.7000
-20.2186 0.1213 2.7000
-20.2385 0.0748 2.7000
-20.2487 0.0253 2.7000
-20.2487 -0.0253 2.7000
-20.2385 -0.0748 2.7000
-20.2186 -0.1213 2.7000
-20.1897 -0.1628 2.7000
-20.1530 -0.1977 2.7000
-20.1101 -0.2245 2.7000
-20.0627 -0.2420 2.7000
-20.0127 -0.2497 2.7000
-19.9621 -0.2471 2.7000
-19.9132 -0.2344 2.7000
-19.8678 -0.2122 2.7000
-19.8278 -0.1812 2.7000
-19.7948 -0.1428 2.7000
-19.7703 -0.0986 2.7000
-19.7551 -0.0503 2.7000
-19.7500 0.0000 2.8000
-19.7551 0.0503 2.8000
-19.7703 0.0986 2.8000
-19.7948 0.1428 2.8000
-19.8278 0.1812 2.8000
-19.8678 0.2122 2.8000
-19.9132 0.2344 2.8000
-19.9621 0.2471 2.8000
-20.0127 0.2497 2.8000
-20.0627 0.2420 2.8000
-20.1101 0.2245 2.8000
-20.1530 0.1977 2.8000
-20.1897 0.1628 2.8000
-20.2186 0.1213 2.8000
-20.2385 0.0748 2.8000
-20.2487 0.0253 2.8000
-20.2487 -0.0253 2.8000
-20.2385 -0.0748 2.8000
-20.2186 -0.1213 2.8000
-20.1897 -0.1628 2.8000
-20.1530 -0.1977 2.8000
-20.1101 -0.2245 2.8000
-20.0627 -0.2420 2.8000
-20.0127 -0.2497 2.8000
-19.9621 -0.2471 2.8000
-19.9132 -0.2344 2.8000
-19.8678 -0.2122 2.8000
-19.8278 -0.1812 2.8000
-19.7948 -0.1428 2.8000
-19.7703 -0.0986 2.8000
-19.7551 -0.0503 2.8000
-19.7500 0.0000 2.9000
-19.7551 0.0503 2.9000
-19.7703 0.0986 2.9000
-19.7948 0.1428 2.9000
-19.8278 0.1812 2.9000
-19.8678 0.2122 2.9000
-19.9132 0.2344 2.9000
-19.9621 0.2471 2.9000
-20.0127 0.2497 2.9000
-20.0627 0.2420 2.9000
-20.1101 0.2245 2.9000
-20.1530 0.1977 2.9000
-20.1897 0.1628 2.9000
-20.2186 0.1213 2.9000
-20.2385 0.0748 2.9000
-20.2487 0.0253 2.9000
-20.2487 -0.0253 2.9000
-20.2385 -0.0748 2.9000
-20.2186 -0.1213 2.9000
-20.1897 -0.1628 2.9000
-20.1530 -0.1977 2.9000
-20.1101 -0.2245 2.9000
-20.0627 -0.2420 2.9000
-20.0127 -0.2497 2.9000
-19.9621 -0.2471 2.9000
-19.9132 -0.2344 2.9000
-19.8678 -0.2122 2.9000
-19.8278 -0.1812 2.9000
-19.7948 -0.1428 2.9000
-19.7703 -0.0986 2.9000
-19.7551 -0.0503 2.9000
-19.7500 0.0000 3.0000
-19.7551 0.0503 3.0000
-19.7703 0.0986 3.0000
-19.7948 0.1428 3.0000
-19.8278 0.1812 3.0000
-19.8678 0.2122 3.0000
-19.9132 0.2344 3.0000
-19.9621 0.2471 3.0000
-20.0127 0.2497 3.0000
-20.0627 0.2420 3.0000
-20.1101 0.2245 3.0000
-20.1530 0.1977 3.0000
-20.1897 0.1628 3.0000
-20.2186 0.1213 3.0000
-20.2385 0.0748 3.0000
-20.2487 0.0253 3.0000
-20.2487 -0.0253 3.0000
-20.2385 -0.0748 3.0000
-20.2186 -0.1213 3.0000
-20.1897 -0.1628 3.0000
-20.1530 -0.1977 3.0000
-20.1101 -0.2245 3.0000
-20.0627 -0.2420 3.0000
-20.0127 -0.2497 3.0000
-19.9621 -0.2471 3.0000
-19.9132 -0.2344 3.0000
-19.8678 -0.2122 3.0000
-19.8278 -0.1812 3.0000
-19.7948 -0.1428 3.0000
-19.7703 -0.0986 3.0000
-19.7551 -0.0503 3.0000
